<mxfile host="app.diagrams.net" agent="Mozilla/5.0 (Macintosh; Intel Mac OS X 10_15_7) AppleWebKit/537.36 (KHTML, like Gecko) Chrome/131.0.0.0 Safari/537.36" version="25.0.0">
  <diagram name="페이지-1" id="Sq8FgXWg_lhPtDDudUFp">
    <mxGraphModel dx="1578" dy="908" grid="1" gridSize="10" guides="1" tooltips="1" connect="1" arrows="1" fold="1" page="1" pageScale="1" pageWidth="827" pageHeight="1169" math="0" shadow="0">
      <root>
        <mxCell id="0" />
        <mxCell id="1" parent="0" />
        <mxCell id="IkT7S4ouV2nKcYeQMEo2-21" value="" style="rounded=1;whiteSpace=wrap;html=1;" vertex="1" parent="1">
          <mxGeometry x="170" y="190" width="340" height="380" as="geometry" />
        </mxCell>
        <mxCell id="IkT7S4ouV2nKcYeQMEo2-1" value="" style="rounded=1;whiteSpace=wrap;html=1;" vertex="1" parent="1">
          <mxGeometry x="190" y="245" width="290" height="190" as="geometry" />
        </mxCell>
        <mxCell id="IkT7S4ouV2nKcYeQMEo2-2" value="" style="rounded=1;whiteSpace=wrap;html=1;" vertex="1" parent="1">
          <mxGeometry x="570" y="250" width="160" height="145" as="geometry" />
        </mxCell>
        <mxCell id="IkT7S4ouV2nKcYeQMEo2-3" value="&lt;font style=&quot;font-size: 20px;&quot;&gt;서버&lt;/font&gt;" style="text;html=1;align=center;verticalAlign=middle;resizable=0;points=[];autosize=1;strokeColor=none;fillColor=none;" vertex="1" parent="1">
          <mxGeometry x="310" y="205" width="60" height="40" as="geometry" />
        </mxCell>
        <mxCell id="IkT7S4ouV2nKcYeQMEo2-4" value="&lt;font style=&quot;font-size: 20px;&quot;&gt;DB&lt;/font&gt;" style="text;html=1;align=center;verticalAlign=middle;resizable=0;points=[];autosize=1;strokeColor=none;fillColor=none;" vertex="1" parent="1">
          <mxGeometry x="570" y="205" width="50" height="40" as="geometry" />
        </mxCell>
        <mxCell id="IkT7S4ouV2nKcYeQMEo2-5" value="" style="rounded=1;whiteSpace=wrap;html=1;" vertex="1" parent="1">
          <mxGeometry x="200" y="315" width="120" height="90" as="geometry" />
        </mxCell>
        <mxCell id="IkT7S4ouV2nKcYeQMEo2-6" value="WAS" style="text;html=1;align=center;verticalAlign=middle;resizable=0;points=[];autosize=1;strokeColor=none;fillColor=none;" vertex="1" parent="1">
          <mxGeometry x="230" y="275" width="50" height="30" as="geometry" />
        </mxCell>
        <mxCell id="IkT7S4ouV2nKcYeQMEo2-7" value="" style="rounded=1;whiteSpace=wrap;html=1;" vertex="1" parent="1">
          <mxGeometry x="350" y="315" width="120" height="90" as="geometry" />
        </mxCell>
        <mxCell id="IkT7S4ouV2nKcYeQMEo2-8" value="백엔드 메인 서버" style="text;html=1;align=center;verticalAlign=middle;resizable=0;points=[];autosize=1;strokeColor=none;fillColor=none;" vertex="1" parent="1">
          <mxGeometry x="360" y="275" width="100" height="30" as="geometry" />
        </mxCell>
        <mxCell id="IkT7S4ouV2nKcYeQMEo2-11" value="" style="shape=cylinder3;whiteSpace=wrap;html=1;boundedLbl=1;backgroundOutline=1;size=15;" vertex="1" parent="1">
          <mxGeometry x="365" y="450" width="95" height="95" as="geometry" />
        </mxCell>
        <mxCell id="IkT7S4ouV2nKcYeQMEo2-12" value="" style="shape=cylinder3;whiteSpace=wrap;html=1;boundedLbl=1;backgroundOutline=1;size=15;" vertex="1" parent="1">
          <mxGeometry x="602.5" y="270" width="95" height="100" as="geometry" />
        </mxCell>
        <mxCell id="IkT7S4ouV2nKcYeQMEo2-16" value="" style="endArrow=classic;html=1;rounded=0;" edge="1" parent="1">
          <mxGeometry width="50" height="50" relative="1" as="geometry">
            <mxPoint x="70" y="330" as="sourcePoint" />
            <mxPoint x="120" y="330" as="targetPoint" />
          </mxGeometry>
        </mxCell>
        <mxCell id="IkT7S4ouV2nKcYeQMEo2-22" value="&lt;span style=&quot;font-size: 20px;&quot;&gt;AWS EC2&lt;/span&gt;" style="text;html=1;align=center;verticalAlign=middle;resizable=0;points=[];autosize=1;strokeColor=none;fillColor=none;" vertex="1" parent="1">
          <mxGeometry x="165" y="150" width="110" height="40" as="geometry" />
        </mxCell>
      </root>
    </mxGraphModel>
  </diagram>
</mxfile>
